<svg xmlns="http://www.w3.org/2000/svg" xmlns:xlink="http://www.w3.org/1999/xlink" width="150" viewBox="0 0 150 150" height="150" version="1.0"><defs><g id="b"><path d="M 9.71875 -4.296875 C 9.71875 -2.921875 9.316406 -1.859375 8.515625 -1.109375 C 7.722656 -0.367188 6.6875 0 5.40625 0 L 1.46875 0 C 1.394531 0 1.332031 -0.0234375 1.28125 -0.078125 C 1.226562 -0.128906 1.203125 -0.191406 1.203125 -0.265625 L 1.203125 -15.390625 C 1.203125 -15.460938 1.226562 -15.523438 1.28125 -15.578125 C 1.332031 -15.628906 1.394531 -15.65625 1.46875 -15.65625 L 5.015625 -15.65625 C 6.421875 -15.65625 7.523438 -15.296875 8.328125 -14.578125 C 9.140625 -13.859375 9.546875 -12.816406 9.546875 -11.453125 C 9.546875 -9.910156 9.003906 -8.8125 7.921875 -8.15625 C 7.835938 -8.113281 7.820312 -8.070312 7.875 -8.03125 C 8.457031 -7.65625 8.910156 -7.15625 9.234375 -6.53125 C 9.554688 -5.90625 9.71875 -5.160156 9.71875 -4.296875 Z M 3.90625 -13.421875 C 3.832031 -13.421875 3.796875 -13.378906 3.796875 -13.296875 L 3.796875 -9.140625 C 3.796875 -9.066406 3.832031 -9.03125 3.90625 -9.03125 L 5.046875 -9.03125 C 5.660156 -9.03125 6.140625 -9.21875 6.484375 -9.59375 C 6.828125 -9.96875 7 -10.492188 7 -11.171875 C 7 -11.890625 6.828125 -12.441406 6.484375 -12.828125 C 6.140625 -13.222656 5.660156 -13.421875 5.046875 -13.421875 Z M 5.203125 -2.265625 C 5.804688 -2.265625 6.273438 -2.472656 6.609375 -2.890625 C 6.953125 -3.304688 7.125 -3.894531 7.125 -4.65625 C 7.125 -5.425781 6.953125 -6.03125 6.609375 -6.46875 C 6.273438 -6.90625 5.804688 -7.125 5.203125 -7.125 L 3.90625 -7.125 C 3.832031 -7.125 3.796875 -7.085938 3.796875 -7.015625 L 3.796875 -2.375 C 3.796875 -2.300781 3.832031 -2.265625 3.90625 -2.265625 Z M 5.203125 -2.265625"/></g><g id="c"><path d="M 9.015625 -13.6875 C 9.015625 -13.613281 8.988281 -13.550781 8.9375 -13.5 C 8.882812 -13.445312 8.820312 -13.421875 8.75 -13.421875 L 3.90625 -13.421875 C 3.832031 -13.421875 3.796875 -13.378906 3.796875 -13.296875 L 3.796875 -9.078125 C 3.796875 -9.003906 3.832031 -8.96875 3.90625 -8.96875 L 6.78125 -8.96875 C 6.851562 -8.96875 6.914062 -8.941406 6.96875 -8.890625 C 7.019531 -8.835938 7.046875 -8.773438 7.046875 -8.703125 L 7.046875 -6.96875 C 7.046875 -6.894531 7.019531 -6.832031 6.96875 -6.78125 C 6.914062 -6.726562 6.851562 -6.703125 6.78125 -6.703125 L 3.90625 -6.703125 C 3.832031 -6.703125 3.796875 -6.664062 3.796875 -6.59375 L 3.796875 -2.34375 C 3.796875 -2.269531 3.832031 -2.234375 3.90625 -2.234375 L 8.75 -2.234375 C 8.820312 -2.234375 8.882812 -2.207031 8.9375 -2.15625 C 8.988281 -2.101562 9.015625 -2.039062 9.015625 -1.96875 L 9.015625 -0.265625 C 9.015625 -0.191406 8.988281 -0.128906 8.9375 -0.078125 C 8.882812 -0.0234375 8.820312 0 8.75 0 L 1.46875 0 C 1.394531 0 1.332031 -0.0234375 1.28125 -0.078125 C 1.226562 -0.128906 1.203125 -0.191406 1.203125 -0.265625 L 1.203125 -15.390625 C 1.203125 -15.460938 1.226562 -15.523438 1.28125 -15.578125 C 1.332031 -15.628906 1.394531 -15.65625 1.46875 -15.65625 L 8.75 -15.65625 C 8.820312 -15.65625 8.882812 -15.628906 8.9375 -15.578125 C 8.988281 -15.523438 9.015625 -15.460938 9.015625 -15.390625 Z M 9.015625 -13.6875"/></g><g id="d"><path d="M 7.40625 0 C 7.25 0 7.148438 -0.0703125 7.109375 -0.21875 L 5.203125 -6.640625 C 5.179688 -6.703125 5.144531 -6.734375 5.09375 -6.734375 L 3.90625 -6.734375 C 3.832031 -6.734375 3.796875 -6.695312 3.796875 -6.625 L 3.796875 -0.265625 C 3.796875 -0.191406 3.769531 -0.128906 3.71875 -0.078125 C 3.664062 -0.0234375 3.601562 0 3.53125 0 L 1.46875 0 C 1.394531 0 1.332031 -0.0234375 1.28125 -0.078125 C 1.226562 -0.128906 1.203125 -0.191406 1.203125 -0.265625 L 1.203125 -15.390625 C 1.203125 -15.460938 1.226562 -15.523438 1.28125 -15.578125 C 1.332031 -15.628906 1.394531 -15.65625 1.46875 -15.65625 L 5.671875 -15.65625 C 6.460938 -15.65625 7.160156 -15.460938 7.765625 -15.078125 C 8.367188 -14.703125 8.835938 -14.164062 9.171875 -13.46875 C 9.515625 -12.78125 9.6875 -11.988281 9.6875 -11.09375 C 9.6875 -10.164062 9.503906 -9.363281 9.140625 -8.6875 C 8.785156 -8.019531 8.285156 -7.515625 7.640625 -7.171875 C 7.585938 -7.160156 7.566406 -7.117188 7.578125 -7.046875 L 9.765625 -0.3125 C 9.785156 -0.28125 9.796875 -0.242188 9.796875 -0.203125 C 9.796875 -0.0664062 9.710938 0 9.546875 0 Z M 3.90625 -13.421875 C 3.832031 -13.421875 3.796875 -13.378906 3.796875 -13.296875 L 3.796875 -8.859375 C 3.796875 -8.785156 3.832031 -8.75 3.90625 -8.75 L 5.28125 -8.75 C 5.8125 -8.75 6.242188 -8.957031 6.578125 -9.375 C 6.921875 -9.789062 7.09375 -10.351562 7.09375 -11.0625 C 7.09375 -11.78125 6.921875 -12.351562 6.578125 -12.78125 C 6.242188 -13.207031 5.8125 -13.421875 5.28125 -13.421875 Z M 3.90625 -13.421875"/></g><g id="e"><path d="M 9.234375 -15.65625 C 9.304688 -15.65625 9.367188 -15.628906 9.421875 -15.578125 C 9.472656 -15.523438 9.5 -15.460938 9.5 -15.390625 L 9.5 -13.6875 C 9.5 -13.613281 9.472656 -13.550781 9.421875 -13.5 C 9.367188 -13.445312 9.304688 -13.421875 9.234375 -13.421875 L 6.390625 -13.421875 C 6.316406 -13.421875 6.28125 -13.378906 6.28125 -13.296875 L 6.28125 -0.265625 C 6.28125 -0.191406 6.253906 -0.128906 6.203125 -0.078125 C 6.148438 -0.0234375 6.085938 0 6.015625 0 L 3.953125 0 C 3.878906 0 3.816406 -0.0234375 3.765625 -0.078125 C 3.710938 -0.128906 3.6875 -0.191406 3.6875 -0.265625 L 3.6875 -13.296875 C 3.6875 -13.378906 3.648438 -13.421875 3.578125 -13.421875 L 0.890625 -13.421875 C 0.816406 -13.421875 0.753906 -13.445312 0.703125 -13.5 C 0.648438 -13.550781 0.625 -13.613281 0.625 -13.6875 L 0.625 -15.390625 C 0.625 -15.460938 0.648438 -15.523438 0.703125 -15.578125 C 0.753906 -15.628906 0.816406 -15.65625 0.890625 -15.65625 Z M 9.234375 -15.65625"/></g><g id="f"><path d="M 1.46875 0 C 1.394531 0 1.332031 -0.0234375 1.28125 -0.078125 C 1.226562 -0.128906 1.203125 -0.191406 1.203125 -0.265625 L 1.203125 -15.390625 C 1.203125 -15.460938 1.226562 -15.523438 1.28125 -15.578125 C 1.332031 -15.628906 1.394531 -15.65625 1.46875 -15.65625 L 3.53125 -15.65625 C 3.601562 -15.65625 3.664062 -15.628906 3.71875 -15.578125 C 3.769531 -15.523438 3.796875 -15.460938 3.796875 -15.390625 L 3.796875 -0.265625 C 3.796875 -0.191406 3.769531 -0.128906 3.71875 -0.078125 C 3.664062 -0.0234375 3.601562 0 3.53125 0 Z M 1.46875 0"/></g><g id="h"><path d="M 5.203125 0.171875 C 3.921875 0.171875 2.890625 -0.210938 2.109375 -0.984375 C 1.328125 -1.753906 0.9375 -2.78125 0.9375 -4.0625 L 0.9375 -11.578125 C 0.9375 -12.859375 1.328125 -13.882812 2.109375 -14.65625 C 2.890625 -15.4375 3.921875 -15.828125 5.203125 -15.828125 C 6.484375 -15.828125 7.519531 -15.4375 8.3125 -14.65625 C 9.101562 -13.882812 9.5 -12.859375 9.5 -11.578125 L 9.5 -4.0625 C 9.5 -2.78125 9.101562 -1.753906 8.3125 -0.984375 C 7.519531 -0.210938 6.484375 0.171875 5.203125 0.171875 Z M 5.203125 -2.0625 C 5.710938 -2.0625 6.125 -2.234375 6.4375 -2.578125 C 6.75 -2.929688 6.90625 -3.390625 6.90625 -3.953125 L 6.90625 -11.6875 C 6.90625 -12.257812 6.75 -12.71875 6.4375 -13.0625 C 6.125 -13.414062 5.710938 -13.59375 5.203125 -13.59375 C 4.703125 -13.59375 4.296875 -13.414062 3.984375 -13.0625 C 3.679688 -12.71875 3.53125 -12.257812 3.53125 -11.6875 L 3.53125 -3.953125 C 3.53125 -3.390625 3.679688 -2.929688 3.984375 -2.578125 C 4.296875 -2.234375 4.703125 -2.0625 5.203125 -2.0625 Z M 5.203125 -2.0625"/></g><g id="i"><path d="M 3.796875 0 C 3.617188 0 3.523438 -0.0820312 3.515625 -0.25 L 0.53125 -15.359375 L 0.515625 -15.453125 C 0.515625 -15.585938 0.597656 -15.65625 0.765625 -15.65625 L 2.90625 -15.65625 C 3.082031 -15.65625 3.179688 -15.570312 3.203125 -15.40625 L 4.765625 -6.078125 C 4.773438 -6.035156 4.796875 -6.015625 4.828125 -6.015625 C 4.859375 -6.015625 4.878906 -6.035156 4.890625 -6.078125 L 6.3125 -15.40625 C 6.320312 -15.570312 6.414062 -15.65625 6.59375 -15.65625 L 8.390625 -15.65625 C 8.566406 -15.65625 8.660156 -15.570312 8.671875 -15.40625 L 10.203125 -6.078125 C 10.210938 -6.035156 10.234375 -6.015625 10.265625 -6.015625 C 10.296875 -6.015625 10.316406 -6.035156 10.328125 -6.078125 L 11.734375 -15.40625 C 11.753906 -15.570312 11.851562 -15.65625 12.03125 -15.65625 L 14.109375 -15.65625 C 14.304688 -15.65625 14.390625 -15.554688 14.359375 -15.359375 L 11.515625 -0.25 C 11.503906 -0.0820312 11.40625 0 11.21875 0 L 9.328125 0 C 9.148438 0 9.050781 -0.0820312 9.03125 -0.25 L 7.53125 -9.75 C 7.519531 -9.8125 7.5 -9.84375 7.46875 -9.84375 C 7.4375 -9.84375 7.414062 -9.8125 7.40625 -9.75 L 6.015625 -0.25 C 6.003906 -0.0820312 5.90625 0 5.71875 0 Z M 3.796875 0"/></g><g id="j"><path d="M 1.46875 0 C 1.394531 0 1.332031 -0.0234375 1.28125 -0.078125 C 1.226562 -0.128906 1.203125 -0.191406 1.203125 -0.265625 L 1.203125 -15.390625 C 1.203125 -15.460938 1.226562 -15.523438 1.28125 -15.578125 C 1.332031 -15.628906 1.394531 -15.65625 1.46875 -15.65625 L 3.53125 -15.65625 C 3.601562 -15.65625 3.664062 -15.628906 3.71875 -15.578125 C 3.769531 -15.523438 3.796875 -15.460938 3.796875 -15.390625 L 3.796875 -2.34375 C 3.796875 -2.269531 3.832031 -2.234375 3.90625 -2.234375 L 8.75 -2.234375 C 8.820312 -2.234375 8.882812 -2.207031 8.9375 -2.15625 C 8.988281 -2.101562 9.015625 -2.039062 9.015625 -1.96875 L 9.015625 -0.265625 C 9.015625 -0.191406 8.988281 -0.128906 8.9375 -0.078125 C 8.882812 -0.0234375 8.820312 0 8.75 0 Z M 1.46875 0"/></g><g id="k"><path d="M 4.734375 -1.5 C 4.734375 -1.019531 4.5625 -0.648438 4.21875 -0.390625 C 3.875 -0.128906 3.394531 0 2.78125 0 L 0.640625 0 L 0.640625 -5.3125 L 2.5625 -5.3125 C 3.8125 -5.3125 4.4375 -4.878906 4.4375 -4.015625 C 4.4375 -3.703125 4.347656 -3.4375 4.171875 -3.21875 C 3.992188 -3.007812 3.742188 -2.867188 3.421875 -2.796875 C 3.847656 -2.742188 4.171875 -2.601562 4.390625 -2.375 C 4.617188 -2.144531 4.734375 -1.851562 4.734375 -1.5 Z M 3.703125 -3.9375 C 3.703125 -4.21875 3.601562 -4.421875 3.40625 -4.546875 C 3.21875 -4.671875 2.9375 -4.734375 2.5625 -4.734375 L 1.359375 -4.734375 L 1.359375 -3.046875 L 2.5625 -3.046875 C 2.945312 -3.046875 3.234375 -3.117188 3.421875 -3.265625 C 3.609375 -3.410156 3.703125 -3.632812 3.703125 -3.9375 Z M 4.015625 -1.546875 C 4.015625 -2.171875 3.570312 -2.484375 2.6875 -2.484375 L 1.359375 -2.484375 L 1.359375 -0.578125 L 2.75 -0.578125 C 3.1875 -0.578125 3.503906 -0.65625 3.703125 -0.8125 C 3.910156 -0.976562 4.015625 -1.222656 4.015625 -1.546875 Z M 4.015625 -1.546875"/></g><g id="l"><path d="M 4.390625 0 L 3.796875 -1.546875 L 1.375 -1.546875 L 0.765625 0 L 0.015625 0 L 2.1875 -5.3125 L 3 -5.3125 L 5.140625 0 Z M 2.578125 -4.765625 L 2.546875 -4.65625 C 2.484375 -4.445312 2.390625 -4.179688 2.265625 -3.859375 L 1.59375 -2.109375 L 3.578125 -2.109375 L 2.890625 -3.859375 C 2.816406 -4.035156 2.75 -4.234375 2.6875 -4.453125 Z M 2.578125 -4.765625"/></g><g id="m"><path d="M 0.640625 0 L 0.640625 -5.3125 L 1.359375 -5.3125 L 1.359375 -0.59375 L 4.03125 -0.59375 L 4.03125 0 Z M 0.640625 0"/></g><g id="n"><path d="M 4.390625 0 L 3 -2.203125 L 1.359375 -2.203125 L 1.359375 0 L 0.640625 0 L 0.640625 -5.3125 L 3.125 -5.3125 C 3.726562 -5.3125 4.191406 -5.175781 4.515625 -4.90625 C 4.835938 -4.632812 5 -4.265625 5 -3.796875 C 5 -3.398438 4.882812 -3.066406 4.65625 -2.796875 C 4.425781 -2.523438 4.109375 -2.351562 3.703125 -2.28125 L 5.21875 0 Z M 4.28125 -3.78125 C 4.28125 -4.09375 4.175781 -4.328125 3.96875 -4.484375 C 3.757812 -4.648438 3.457031 -4.734375 3.0625 -4.734375 L 1.359375 -4.734375 L 1.359375 -2.78125 L 3.09375 -2.78125 C 3.46875 -2.78125 3.757812 -2.867188 3.96875 -3.046875 C 4.175781 -3.222656 4.28125 -3.46875 4.28125 -3.78125 Z M 4.28125 -3.78125"/></g><g id="o"><path d="M 0.71875 0 L 0.71875 -5.3125 L 1.4375 -5.3125 L 1.4375 0 Z M 0.71875 0"/></g><g id="p"><path d="M 0.390625 -2.6875 C 0.390625 -3.539062 0.617188 -4.203125 1.078125 -4.671875 C 1.546875 -5.148438 2.195312 -5.390625 3.03125 -5.390625 C 3.613281 -5.390625 4.085938 -5.289062 4.453125 -5.09375 C 4.828125 -4.894531 5.113281 -4.578125 5.3125 -4.140625 L 4.625 -3.9375 C 4.46875 -4.238281 4.257812 -4.457031 4 -4.59375 C 3.738281 -4.726562 3.410156 -4.796875 3.015625 -4.796875 C 2.398438 -4.796875 1.929688 -4.609375 1.609375 -4.234375 C 1.285156 -3.867188 1.125 -3.351562 1.125 -2.6875 C 1.125 -2.007812 1.296875 -1.476562 1.640625 -1.09375 C 1.984375 -0.707031 2.457031 -0.515625 3.0625 -0.515625 C 3.40625 -0.515625 3.726562 -0.566406 4.03125 -0.671875 C 4.332031 -0.773438 4.578125 -0.914062 4.765625 -1.09375 L 4.765625 -2.046875 L 3.171875 -2.046875 L 3.171875 -2.65625 L 5.421875 -2.65625 L 5.421875 -0.828125 C 5.140625 -0.535156 4.796875 -0.3125 4.390625 -0.15625 C 3.984375 0 3.539062 0.078125 3.0625 0.078125 C 2.507812 0.078125 2.03125 -0.03125 1.625 -0.25 C 1.226562 -0.476562 0.921875 -0.796875 0.703125 -1.203125 C 0.492188 -1.617188 0.390625 -2.113281 0.390625 -2.6875 Z M 0.390625 -2.6875"/></g><g id="q"><path d="M 4.078125 0 L 1.234375 -4.515625 L 1.25 -4.15625 L 1.28125 -3.53125 L 1.28125 0 L 0.640625 0 L 0.640625 -5.3125 L 1.46875 -5.3125 L 4.34375 -0.75 C 4.3125 -1.25 4.296875 -1.609375 4.296875 -1.828125 L 4.296875 -5.3125 L 4.9375 -5.3125 L 4.9375 0 Z M 4.078125 0"/></g><clipPath id="a"><path d="M 35 15 L 120 15 L 120 98.597656 L 35 98.597656 Z M 35 15"/></clipPath></defs><path fill="#FFF" d="M-15 -15H165V165H-15z"/><path fill="#FFF" d="M-15 -15H165V165H-15z"/><path fill="#FFF" d="M-15 -15H165V165H-15z"/><g clip-path="url(#a)"><path d="M 108.699219 45.816406 C 108.429688 47.507812 107.898438 49.070312 107.519531 50.683594 L 99.664062 50.683594 C 99.28125 49.070312 98.75 47.507812 98.484375 45.816406 C 97.675781 40.710938 98.765625 33.609375 103.589844 33.609375 C 108.417969 33.609375 109.503906 40.710938 108.699219 45.816406 Z M 107.085938 54.882812 L 100.097656 54.882812 C 100.101562 54.820312 100.101562 54.757812 100.101562 54.699219 L 100.101562 54.003906 C 100.101562 53.890625 100.097656 53.777344 100.09375 53.660156 L 107.085938 53.660156 C 107.085938 53.777344 107.082031 53.890625 107.082031 54.003906 L 107.082031 54.699219 C 107.082031 54.757812 107.082031 54.820312 107.085938 54.882812 Z M 84.394531 63.066406 C 84.125 64.753906 83.59375 66.316406 83.214844 67.933594 L 75.359375 67.933594 C 74.976562 66.316406 74.445312 64.753906 74.179688 63.066406 C 73.371094 57.960938 74.460938 50.859375 79.285156 50.859375 C 84.113281 50.859375 85.199219 57.960938 84.394531 63.066406 Z M 117.46875 46.25 C 111.277344 23.929688 88.167969 10.859375 65.855469 17.058594 C 43.546875 23.253906 30.484375 46.375 36.679688 68.695312 C 41.042969 84.414062 53.792969 95.542969 68.746094 98.589844 C 68.792969 95.753906 68.960938 92.914062 69.257812 90.074219 C 69.644531 86.398438 70.960938 83.226562 72.824219 81.011719 C 74.042969 79.5625 74.910156 77.6875 75.382812 75.636719 C 75.421875 75.460938 75.457031 75.285156 75.496094 75.109375 L 83.078125 75.109375 C 83.113281 75.285156 83.148438 75.460938 83.1875 75.636719 C 83.660156 77.6875 84.527344 79.5625 85.75 81.011719 C 87.609375 83.226562 88.925781 86.398438 89.3125 90.074219 C 89.566406 92.53125 89.730469 94.980469 89.800781 97.433594 C 91.207031 96.992188 92.574219 96.476562 93.898438 95.894531 C 92.871094 88.183594 92.761719 80.523438 93.566406 72.824219 C 93.949219 69.148438 95.265625 65.980469 97.128906 63.765625 C 98.347656 62.3125 99.214844 60.4375 99.6875 58.386719 C 99.726562 58.210938 99.761719 58.035156 99.800781 57.859375 L 107.382812 57.859375 C 107.417969 58.035156 107.453125 58.210938 107.492188 58.386719 C 107.964844 60.4375 108.832031 62.3125 110.054688 63.765625 C 111.914062 65.980469 113.230469 69.148438 113.617188 72.824219 C 113.773438 74.339844 113.894531 75.851562 113.980469 77.367188 C 118.9375 68.164062 120.484375 57.113281 117.46875 46.25"/></g><path fill="#E60A0A" d="M 69.421875 34.492188 C 67.375 34.492188 65.5625 33.113281 65.015625 31.136719 C 64.6875 29.957031 64.839844 28.722656 65.441406 27.660156 C 66.042969 26.59375 67.023438 25.828125 68.199219 25.5 C 68.601562 25.390625 69.015625 25.332031 69.425781 25.332031 C 71.476562 25.332031 73.289062 26.710938 73.835938 28.6875 C 74.164062 29.867188 74.011719 31.101562 73.410156 32.164062 C 72.808594 33.230469 71.828125 33.996094 70.648438 34.324219 C 70.25 34.4375 69.835938 34.492188 69.421875 34.492188"/><path fill="#E60A0A" d="M 65.199219 50.859375 C 63.152344 50.859375 61.339844 49.480469 60.789062 47.503906 C 60.464844 46.324219 60.613281 45.089844 61.214844 44.027344 C 61.816406 42.960938 62.796875 42.195312 63.976562 41.867188 C 64.375 41.753906 64.789062 41.699219 65.203125 41.699219 C 67.25 41.699219 69.0625 43.078125 69.609375 45.054688 C 69.9375 46.234375 69.785156 47.46875 69.183594 48.53125 C 68.582031 49.597656 67.601562 50.363281 66.425781 50.691406 C 66.023438 50.800781 65.613281 50.859375 65.199219 50.859375"/><path fill="#E60A0A" d="M 81.476562 46.335938 C 79.429688 46.335938 77.617188 44.957031 77.070312 42.980469 C 76.742188 41.804688 76.894531 40.566406 77.496094 39.503906 C 78.097656 38.4375 79.078125 37.671875 80.257812 37.34375 C 80.65625 37.234375 81.070312 37.175781 81.480469 37.175781 C 83.527344 37.175781 85.339844 38.554688 85.890625 40.53125 C 86.566406 42.964844 85.136719 45.492188 82.707031 46.167969 C 82.304688 46.28125 81.890625 46.335938 81.476562 46.335938"/><g><use x="23.187" y="125.895" xmlns:xlink="http://www.w3.org/1999/xlink" xlink:href="#b" xlink:type="simple" xlink:actuate="onLoad" xlink:show="embed"/></g><g><use x="33.516" y="125.895" xmlns:xlink="http://www.w3.org/1999/xlink" xlink:href="#c" xlink:type="simple" xlink:actuate="onLoad" xlink:show="embed"/></g><g><use x="43.241" y="125.895" xmlns:xlink="http://www.w3.org/1999/xlink" xlink:href="#d" xlink:type="simple" xlink:actuate="onLoad" xlink:show="embed"/></g><g><use x="53.547" y="125.895" xmlns:xlink="http://www.w3.org/1999/xlink" xlink:href="#e" xlink:type="simple" xlink:actuate="onLoad" xlink:show="embed"/></g><g><use x="63.652" y="125.895" xmlns:xlink="http://www.w3.org/1999/xlink" xlink:href="#f" xlink:type="simple" xlink:actuate="onLoad" xlink:show="embed"/></g><g><use x="68.66" y="125.895" xmlns:xlink="http://www.w3.org/1999/xlink" xlink:href="#c" xlink:type="simple" xlink:actuate="onLoad" xlink:show="embed"/></g><g><use x="78.385" y="125.895" xmlns:xlink="http://www.w3.org/1999/xlink" xlink:href="#g" xlink:type="simple" xlink:actuate="onLoad" xlink:show="embed"/></g><g><use x="82.856" y="125.895" xmlns:xlink="http://www.w3.org/1999/xlink" xlink:href="#b" xlink:type="simple" xlink:actuate="onLoad" xlink:show="embed"/></g><g><use x="93.184" y="125.895" xmlns:xlink="http://www.w3.org/1999/xlink" xlink:href="#h" xlink:type="simple" xlink:actuate="onLoad" xlink:show="embed"/></g><g><use x="103.625" y="125.895" xmlns:xlink="http://www.w3.org/1999/xlink" xlink:href="#i" xlink:type="simple" xlink:actuate="onLoad" xlink:show="embed"/></g><g><use x="118.491" y="125.895" xmlns:xlink="http://www.w3.org/1999/xlink" xlink:href="#j" xlink:type="simple" xlink:actuate="onLoad" xlink:show="embed"/></g><g fill="#B80C0C"><use x="41.394" y="137.616" xmlns:xlink="http://www.w3.org/1999/xlink" xlink:href="#k" xlink:type="simple" xlink:actuate="onLoad" xlink:show="embed"/></g><g fill="#B80C0C"><use x="48.384" y="137.616" xmlns:xlink="http://www.w3.org/1999/xlink" xlink:href="#l" xlink:type="simple" xlink:actuate="onLoad" xlink:show="embed"/></g><g fill="#B80C0C"><use x="55.374" y="137.616" xmlns:xlink="http://www.w3.org/1999/xlink" xlink:href="#m" xlink:type="simple" xlink:actuate="onLoad" xlink:show="embed"/></g><g fill="#B80C0C"><use x="61.508" y="137.616" xmlns:xlink="http://www.w3.org/1999/xlink" xlink:href="#k" xlink:type="simple" xlink:actuate="onLoad" xlink:show="embed"/></g><g fill="#B80C0C"><use x="68.498" y="137.616" xmlns:xlink="http://www.w3.org/1999/xlink" xlink:href="#n" xlink:type="simple" xlink:actuate="onLoad" xlink:show="embed"/></g><g fill="#B80C0C"><use x="75.914" y="137.616" xmlns:xlink="http://www.w3.org/1999/xlink" xlink:href="#o" xlink:type="simple" xlink:actuate="onLoad" xlink:show="embed"/></g><g fill="#B80C0C"><use x="79.898" y="137.616" xmlns:xlink="http://www.w3.org/1999/xlink" xlink:href="#p" xlink:type="simple" xlink:actuate="onLoad" xlink:show="embed"/></g><g fill="#B80C0C"><use x="87.744" y="137.616" xmlns:xlink="http://www.w3.org/1999/xlink" xlink:href="#p" xlink:type="simple" xlink:actuate="onLoad" xlink:show="embed"/></g><g fill="#B80C0C"><use x="95.591" y="137.616" xmlns:xlink="http://www.w3.org/1999/xlink" xlink:href="#l" xlink:type="simple" xlink:actuate="onLoad" xlink:show="embed"/></g><g fill="#B80C0C"><use x="102.581" y="137.616" xmlns:xlink="http://www.w3.org/1999/xlink" xlink:href="#q" xlink:type="simple" xlink:actuate="onLoad" xlink:show="embed"/></g></svg>