<svg xmlns="http://www.w3.org/2000/svg" xmlns:xlink="http://www.w3.org/1999/xlink" width="375" viewBox="0 0 375 375" height="375" version="1.0"><defs><g id="b"><path d="M 19.578125 -8.640625 C 19.578125 -5.878906 18.773438 -3.75 17.171875 -2.25 C 15.566406 -0.75 13.472656 0 10.890625 0 L 2.96875 0 C 2.820312 0 2.695312 -0.0507812 2.59375 -0.15625 C 2.488281 -0.257812 2.4375 -0.390625 2.4375 -0.546875 L 2.4375 -30.953125 C 2.4375 -31.109375 2.488281 -31.238281 2.59375 -31.34375 C 2.695312 -31.445312 2.820312 -31.5 2.96875 -31.5 L 10.078125 -31.5 C 12.929688 -31.5 15.164062 -30.78125 16.78125 -29.34375 C 18.40625 -27.90625 19.21875 -25.804688 19.21875 -23.046875 C 19.21875 -19.953125 18.125 -17.742188 15.9375 -16.421875 C 15.78125 -16.335938 15.75 -16.25 15.84375 -16.15625 C 17.007812 -15.40625 17.921875 -14.398438 18.578125 -13.140625 C 19.242188 -11.878906 19.578125 -10.378906 19.578125 -8.640625 Z M 7.875 -27 C 7.726562 -27 7.65625 -26.925781 7.65625 -26.78125 L 7.65625 -18.40625 C 7.65625 -18.257812 7.726562 -18.1875 7.875 -18.1875 L 10.171875 -18.1875 C 11.398438 -18.1875 12.359375 -18.5625 13.046875 -19.3125 C 13.734375 -20.0625 14.078125 -21.125 14.078125 -22.5 C 14.078125 -23.9375 13.734375 -25.046875 13.046875 -25.828125 C 12.359375 -26.609375 11.398438 -27 10.171875 -27 Z M 10.484375 -4.546875 C 11.679688 -4.546875 12.625 -4.960938 13.3125 -5.796875 C 14.007812 -6.640625 14.359375 -7.828125 14.359375 -9.359375 C 14.359375 -10.921875 14.007812 -12.144531 13.3125 -13.03125 C 12.625 -13.914062 11.679688 -14.359375 10.484375 -14.359375 L 7.875 -14.359375 C 7.726562 -14.359375 7.65625 -14.28125 7.65625 -14.125 L 7.65625 -4.765625 C 7.65625 -4.617188 7.726562 -4.546875 7.875 -4.546875 Z M 10.484375 -4.546875"/></g><g id="c"><path d="M 18.140625 -27.546875 C 18.140625 -27.390625 18.082031 -27.257812 17.96875 -27.15625 C 17.863281 -27.050781 17.738281 -27 17.59375 -27 L 7.875 -27 C 7.726562 -27 7.65625 -26.925781 7.65625 -26.78125 L 7.65625 -18.265625 C 7.65625 -18.117188 7.726562 -18.046875 7.875 -18.046875 L 13.640625 -18.046875 C 13.785156 -18.046875 13.910156 -17.992188 14.015625 -17.890625 C 14.117188 -17.785156 14.171875 -17.65625 14.171875 -17.5 L 14.171875 -14.046875 C 14.171875 -13.890625 14.117188 -13.757812 14.015625 -13.65625 C 13.910156 -13.550781 13.785156 -13.5 13.640625 -13.5 L 7.875 -13.5 C 7.726562 -13.5 7.65625 -13.425781 7.65625 -13.28125 L 7.65625 -4.71875 C 7.65625 -4.570312 7.726562 -4.5 7.875 -4.5 L 17.59375 -4.5 C 17.738281 -4.5 17.863281 -4.445312 17.96875 -4.34375 C 18.082031 -4.238281 18.140625 -4.109375 18.140625 -3.953125 L 18.140625 -0.546875 C 18.140625 -0.390625 18.082031 -0.257812 17.96875 -0.15625 C 17.863281 -0.0507812 17.738281 0 17.59375 0 L 2.96875 0 C 2.820312 0 2.695312 -0.0507812 2.59375 -0.15625 C 2.488281 -0.257812 2.4375 -0.390625 2.4375 -0.546875 L 2.4375 -30.953125 C 2.4375 -31.109375 2.488281 -31.238281 2.59375 -31.34375 C 2.695312 -31.445312 2.820312 -31.5 2.96875 -31.5 L 17.59375 -31.5 C 17.738281 -31.5 17.863281 -31.445312 17.96875 -31.34375 C 18.082031 -31.238281 18.140625 -31.109375 18.140625 -30.953125 Z M 18.140625 -27.546875"/></g><g id="d"><path d="M 14.890625 0 C 14.585938 0 14.394531 -0.148438 14.3125 -0.453125 L 10.484375 -13.359375 C 10.421875 -13.484375 10.347656 -13.546875 10.265625 -13.546875 L 7.875 -13.546875 C 7.726562 -13.546875 7.65625 -13.46875 7.65625 -13.3125 L 7.65625 -0.546875 C 7.65625 -0.390625 7.597656 -0.257812 7.484375 -0.15625 C 7.378906 -0.0507812 7.253906 0 7.109375 0 L 2.96875 0 C 2.820312 0 2.695312 -0.0507812 2.59375 -0.15625 C 2.488281 -0.257812 2.4375 -0.390625 2.4375 -0.546875 L 2.4375 -30.953125 C 2.4375 -31.109375 2.488281 -31.238281 2.59375 -31.34375 C 2.695312 -31.445312 2.820312 -31.5 2.96875 -31.5 L 11.4375 -31.5 C 13.019531 -31.5 14.414062 -31.113281 15.625 -30.34375 C 16.84375 -29.582031 17.789062 -28.503906 18.46875 -27.109375 C 19.144531 -25.710938 19.484375 -24.113281 19.484375 -22.3125 C 19.484375 -20.457031 19.125 -18.851562 18.40625 -17.5 C 17.6875 -16.15625 16.679688 -15.132812 15.390625 -14.4375 C 15.265625 -14.414062 15.21875 -14.328125 15.25 -14.171875 L 19.671875 -0.625 C 19.691406 -0.570312 19.703125 -0.5 19.703125 -0.40625 C 19.703125 -0.132812 19.539062 0 19.21875 0 Z M 7.875 -27 C 7.726562 -27 7.65625 -26.925781 7.65625 -26.78125 L 7.65625 -17.8125 C 7.65625 -17.664062 7.726562 -17.59375 7.875 -17.59375 L 10.625 -17.59375 C 11.695312 -17.59375 12.570312 -18.007812 13.25 -18.84375 C 13.925781 -19.6875 14.265625 -20.832031 14.265625 -22.28125 C 14.265625 -23.71875 13.925781 -24.863281 13.25 -25.71875 C 12.570312 -26.570312 11.695312 -27 10.625 -27 Z M 7.875 -27"/></g><g id="e"><path d="M 18.578125 -31.5 C 18.734375 -31.5 18.863281 -31.445312 18.96875 -31.34375 C 19.070312 -31.238281 19.125 -31.109375 19.125 -30.953125 L 19.125 -27.546875 C 19.125 -27.390625 19.070312 -27.257812 18.96875 -27.15625 C 18.863281 -27.050781 18.734375 -27 18.578125 -27 L 12.875 -27 C 12.71875 -27 12.640625 -26.925781 12.640625 -26.78125 L 12.640625 -0.546875 C 12.640625 -0.390625 12.585938 -0.257812 12.484375 -0.15625 C 12.378906 -0.0507812 12.253906 0 12.109375 0 L 7.96875 0 C 7.8125 0 7.679688 -0.0507812 7.578125 -0.15625 C 7.472656 -0.257812 7.421875 -0.390625 7.421875 -0.546875 L 7.421875 -26.78125 C 7.421875 -26.925781 7.347656 -27 7.203125 -27 L 1.796875 -27 C 1.648438 -27 1.523438 -27.050781 1.421875 -27.15625 C 1.316406 -27.257812 1.265625 -27.390625 1.265625 -27.546875 L 1.265625 -30.953125 C 1.265625 -31.109375 1.316406 -31.238281 1.421875 -31.34375 C 1.523438 -31.445312 1.648438 -31.5 1.796875 -31.5 Z M 18.578125 -31.5"/></g><g id="f"><path d="M 2.96875 0 C 2.820312 0 2.695312 -0.0507812 2.59375 -0.15625 C 2.488281 -0.257812 2.4375 -0.390625 2.4375 -0.546875 L 2.4375 -30.953125 C 2.4375 -31.109375 2.488281 -31.238281 2.59375 -31.34375 C 2.695312 -31.445312 2.820312 -31.5 2.96875 -31.5 L 7.109375 -31.5 C 7.253906 -31.5 7.378906 -31.445312 7.484375 -31.34375 C 7.597656 -31.238281 7.65625 -31.109375 7.65625 -30.953125 L 7.65625 -0.546875 C 7.65625 -0.390625 7.597656 -0.257812 7.484375 -0.15625 C 7.378906 -0.0507812 7.253906 0 7.109375 0 Z M 2.96875 0"/></g><g id="h"><path d="M 10.484375 0.359375 C 7.898438 0.359375 5.820312 -0.414062 4.25 -1.96875 C 2.675781 -3.53125 1.890625 -5.601562 1.890625 -8.1875 L 1.890625 -23.3125 C 1.890625 -25.894531 2.675781 -27.960938 4.25 -29.515625 C 5.820312 -31.078125 7.898438 -31.859375 10.484375 -31.859375 C 13.066406 -31.859375 15.148438 -31.078125 16.734375 -29.515625 C 18.328125 -27.960938 19.125 -25.894531 19.125 -23.3125 L 19.125 -8.1875 C 19.125 -5.601562 18.328125 -3.53125 16.734375 -1.96875 C 15.148438 -0.414062 13.066406 0.359375 10.484375 0.359375 Z M 10.484375 -4.140625 C 11.503906 -4.140625 12.328125 -4.488281 12.953125 -5.1875 C 13.585938 -5.894531 13.90625 -6.820312 13.90625 -7.96875 L 13.90625 -23.53125 C 13.90625 -24.675781 13.585938 -25.597656 12.953125 -26.296875 C 12.328125 -27.003906 11.503906 -27.359375 10.484375 -27.359375 C 9.460938 -27.359375 8.644531 -27.003906 8.03125 -26.296875 C 7.414062 -25.597656 7.109375 -24.675781 7.109375 -23.53125 L 7.109375 -7.96875 C 7.109375 -6.820312 7.414062 -5.894531 8.03125 -5.1875 C 8.644531 -4.488281 9.460938 -4.140625 10.484375 -4.140625 Z M 10.484375 -4.140625"/></g><g id="i"><path d="M 7.65625 0 C 7.289062 0 7.09375 -0.164062 7.0625 -0.5 L 1.078125 -30.921875 L 1.03125 -31.09375 C 1.03125 -31.363281 1.195312 -31.5 1.53125 -31.5 L 5.84375 -31.5 C 6.207031 -31.5 6.40625 -31.332031 6.4375 -31 L 9.578125 -12.234375 C 9.609375 -12.148438 9.65625 -12.109375 9.71875 -12.109375 C 9.78125 -12.109375 9.828125 -12.148438 9.859375 -12.234375 L 12.6875 -31 C 12.71875 -31.332031 12.914062 -31.5 13.28125 -31.5 L 16.875 -31.5 C 17.238281 -31.5 17.429688 -31.332031 17.453125 -31 L 20.515625 -12.234375 C 20.546875 -12.148438 20.59375 -12.109375 20.65625 -12.109375 C 20.71875 -12.109375 20.765625 -12.148438 20.796875 -12.234375 L 23.625 -31 C 23.65625 -31.332031 23.847656 -31.5 24.203125 -31.5 L 28.390625 -31.5 C 28.785156 -31.5 28.953125 -31.304688 28.890625 -30.921875 L 23.171875 -0.5 C 23.140625 -0.164062 22.945312 0 22.59375 0 L 18.765625 0 C 18.398438 0 18.207031 -0.164062 18.1875 -0.5 L 15.171875 -19.625 C 15.140625 -19.738281 15.09375 -19.796875 15.03125 -19.796875 C 14.96875 -19.796875 14.921875 -19.738281 14.890625 -19.625 L 12.109375 -0.5 C 12.078125 -0.164062 11.878906 0 11.515625 0 Z M 7.65625 0"/></g><g id="j"><path d="M 2.96875 0 C 2.820312 0 2.695312 -0.0507812 2.59375 -0.15625 C 2.488281 -0.257812 2.4375 -0.390625 2.4375 -0.546875 L 2.4375 -30.953125 C 2.4375 -31.109375 2.488281 -31.238281 2.59375 -31.34375 C 2.695312 -31.445312 2.820312 -31.5 2.96875 -31.5 L 7.109375 -31.5 C 7.253906 -31.5 7.378906 -31.445312 7.484375 -31.34375 C 7.597656 -31.238281 7.65625 -31.109375 7.65625 -30.953125 L 7.65625 -4.71875 C 7.65625 -4.570312 7.726562 -4.5 7.875 -4.5 L 17.59375 -4.5 C 17.738281 -4.5 17.863281 -4.445312 17.96875 -4.34375 C 18.082031 -4.238281 18.140625 -4.109375 18.140625 -3.953125 L 18.140625 -0.546875 C 18.140625 -0.390625 18.082031 -0.257812 17.96875 -0.15625 C 17.863281 -0.0507812 17.738281 0 17.59375 0 Z M 2.96875 0"/></g><g id="k"><path d="M 12.0625 -3.796875 C 12.0625 -2.597656 11.617188 -1.664062 10.734375 -1 C 9.859375 -0.332031 8.644531 0 7.09375 0 L 1.609375 0 L 1.609375 -13.5 L 6.515625 -13.5 C 9.679688 -13.5 11.265625 -12.40625 11.265625 -10.21875 C 11.265625 -9.425781 11.039062 -8.753906 10.59375 -8.203125 C 10.144531 -7.660156 9.515625 -7.300781 8.703125 -7.125 C 9.773438 -6.988281 10.601562 -6.625 11.1875 -6.03125 C 11.769531 -5.445312 12.0625 -4.703125 12.0625 -3.796875 Z M 9.421875 -10 C 9.421875 -10.726562 9.171875 -11.25 8.671875 -11.5625 C 8.179688 -11.875 7.460938 -12.03125 6.515625 -12.03125 L 3.4375 -12.03125 L 3.4375 -7.765625 L 6.515625 -7.765625 C 7.492188 -7.765625 8.222656 -7.945312 8.703125 -8.3125 C 9.179688 -8.675781 9.421875 -9.238281 9.421875 -10 Z M 10.203125 -3.953125 C 10.203125 -5.535156 9.082031 -6.328125 6.84375 -6.328125 L 3.4375 -6.328125 L 3.4375 -1.46875 L 7 -1.46875 C 8.113281 -1.46875 8.925781 -1.675781 9.4375 -2.09375 C 9.945312 -2.507812 10.203125 -3.128906 10.203125 -3.953125 Z M 10.203125 -3.953125"/></g><g id="l"><path d="M 11.1875 0 L 9.640625 -3.953125 L 3.484375 -3.953125 L 1.9375 0 L 0.03125 0 L 5.546875 -13.5 L 7.625 -13.5 L 13.046875 0 Z M 6.5625 -12.125 L 6.484375 -11.859375 C 6.316406 -11.328125 6.078125 -10.644531 5.765625 -9.8125 L 4.046875 -5.375 L 9.09375 -5.375 L 7.359375 -9.828125 C 7.179688 -10.273438 7.003906 -10.773438 6.828125 -11.328125 Z M 6.5625 -12.125"/></g><g id="m"><path d="M 1.609375 0 L 1.609375 -13.5 L 3.4375 -13.5 L 3.4375 -1.5 L 10.265625 -1.5 L 10.265625 0 Z M 1.609375 0"/></g><g id="n"><path d="M 11.15625 0 L 7.640625 -5.609375 L 3.4375 -5.609375 L 3.4375 0 L 1.609375 0 L 1.609375 -13.5 L 7.96875 -13.5 C 9.488281 -13.5 10.660156 -13.15625 11.484375 -12.46875 C 12.304688 -11.789062 12.71875 -10.847656 12.71875 -9.640625 C 12.71875 -8.640625 12.425781 -7.796875 11.84375 -7.109375 C 11.257812 -6.421875 10.453125 -5.988281 9.421875 -5.8125 L 13.265625 0 Z M 10.890625 -9.625 C 10.890625 -10.40625 10.617188 -11 10.078125 -11.40625 C 9.546875 -11.820312 8.78125 -12.03125 7.78125 -12.03125 L 3.4375 -12.03125 L 3.4375 -7.046875 L 7.859375 -7.046875 C 8.816406 -7.046875 9.5625 -7.269531 10.09375 -7.71875 C 10.625 -8.175781 10.890625 -8.8125 10.890625 -9.625 Z M 10.890625 -9.625"/></g><g id="o"><path d="M 1.8125 0 L 1.8125 -13.5 L 3.640625 -13.5 L 3.640625 0 Z M 1.8125 0"/></g><g id="p"><path d="M 0.984375 -6.8125 C 0.984375 -9 1.570312 -10.691406 2.75 -11.890625 C 3.925781 -13.097656 5.578125 -13.703125 7.703125 -13.703125 C 9.203125 -13.703125 10.414062 -13.445312 11.34375 -12.9375 C 12.28125 -12.4375 13 -11.628906 13.5 -10.515625 L 11.75 -10 C 11.375 -10.769531 10.847656 -11.328125 10.171875 -11.671875 C 9.492188 -12.023438 8.65625 -12.203125 7.65625 -12.203125 C 6.09375 -12.203125 4.898438 -11.726562 4.078125 -10.78125 C 3.253906 -9.84375 2.84375 -8.519531 2.84375 -6.8125 C 2.84375 -5.101562 3.28125 -3.753906 4.15625 -2.765625 C 5.03125 -1.785156 6.242188 -1.296875 7.796875 -1.296875 C 8.671875 -1.296875 9.488281 -1.425781 10.25 -1.6875 C 11.019531 -1.957031 11.640625 -2.320312 12.109375 -2.78125 L 12.109375 -5.21875 L 8.078125 -5.21875 L 8.078125 -6.75 L 13.796875 -6.75 L 13.796875 -2.09375 C 13.078125 -1.363281 12.195312 -0.800781 11.15625 -0.40625 C 10.125 -0.0078125 9.003906 0.1875 7.796875 0.1875 C 6.378906 0.1875 5.160156 -0.09375 4.140625 -0.65625 C 3.117188 -1.21875 2.335938 -2.023438 1.796875 -3.078125 C 1.253906 -4.140625 0.984375 -5.382812 0.984375 -6.8125 Z M 0.984375 -6.8125"/></g><g id="q"><path d="M 10.375 0 L 3.140625 -11.5 L 3.1875 -10.5625 L 3.234375 -8.96875 L 3.234375 0 L 1.609375 0 L 1.609375 -13.5 L 3.734375 -13.5 L 11.046875 -1.921875 C 10.960938 -3.171875 10.921875 -4.078125 10.921875 -4.640625 L 10.921875 -13.5 L 12.578125 -13.5 L 12.578125 0 Z M 10.375 0"/></g><clipPath id="a"><path d="M 101 57 L 281 57 L 281 233.257812 L 101 233.257812 Z M 101 57"/></clipPath></defs><g clip-path="url(#a)"><path fill="#FFF" d="M 258.191406 121.382812 C 257.621094 124.964844 256.492188 128.273438 255.683594 131.703125 L 238.988281 131.703125 C 238.183594 128.273438 237.046875 124.964844 236.480469 121.382812 C 234.765625 110.5625 237.082031 95.511719 247.335938 95.511719 C 257.589844 95.511719 259.90625 110.5625 258.191406 121.382812 Z M 254.761719 140.597656 L 239.914062 140.597656 C 239.921875 140.46875 239.921875 140.332031 239.921875 140.207031 L 239.921875 138.734375 C 239.921875 138.492188 239.914062 138.25 239.902344 138.011719 L 254.765625 138.011719 C 254.761719 138.25 254.753906 138.492188 254.753906 138.734375 L 254.753906 140.207031 C 254.753906 140.332031 254.753906 140.46875 254.761719 140.597656 Z M 206.546875 157.941406 C 205.972656 161.523438 204.847656 164.832031 204.039062 168.257812 L 187.339844 168.257812 C 186.535156 164.832031 185.402344 161.523438 184.835938 157.941406 C 183.117188 147.117188 185.433594 132.070312 195.691406 132.070312 C 205.945312 132.070312 208.257812 147.117188 206.546875 157.941406 Z M 276.832031 122.300781 C 263.667969 74.988281 214.5625 47.289062 167.148438 60.429688 C 119.742188 73.5625 91.984375 122.566406 105.144531 169.871094 C 114.421875 203.1875 141.511719 226.777344 173.289062 233.234375 C 173.390625 227.222656 173.75 221.207031 174.382812 215.183594 C 175.203125 207.390625 177.996094 200.675781 181.957031 195.980469 C 184.546875 192.902344 186.394531 188.933594 187.390625 184.582031 C 187.476562 184.214844 187.554688 183.839844 187.632812 183.464844 L 203.746094 183.464844 C 203.820312 183.839844 203.898438 184.214844 203.980469 184.582031 C 204.980469 188.933594 206.824219 192.902344 209.421875 195.980469 C 213.378906 200.675781 216.171875 207.390625 216.992188 215.183594 C 217.535156 220.390625 217.882812 225.585938 218.03125 230.785156 C 221.019531 229.847656 223.925781 228.753906 226.742188 227.523438 C 224.558594 211.175781 224.324219 194.945312 226.03125 178.628906 C 226.847656 170.835938 229.644531 164.117188 233.601562 159.425781 C 236.195312 156.34375 238.039062 152.375 239.039062 148.027344 C 239.125 147.65625 239.203125 147.28125 239.28125 146.90625 L 255.394531 146.90625 C 255.464844 147.28125 255.546875 147.65625 255.628906 148.027344 C 256.628906 152.375 258.472656 156.34375 261.070312 159.425781 C 265.027344 164.117188 267.820312 170.835938 268.640625 178.628906 C 268.976562 181.839844 269.234375 185.042969 269.414062 188.25 C 279.949219 168.75 283.238281 145.328125 276.832031 122.300781"/></g><path fill="#E60A0A" d="M 174.730469 97.378906 C 170.378906 97.378906 166.527344 94.457031 165.363281 90.269531 C 164.667969 87.769531 164.988281 85.152344 166.269531 82.898438 C 167.546875 80.640625 169.628906 79.015625 172.132812 78.320312 C 172.984375 78.085938 173.863281 77.96875 174.738281 77.96875 C 179.089844 77.96875 182.941406 80.890625 184.105469 85.078125 C 184.800781 87.574219 184.480469 90.191406 183.203125 92.449219 C 181.921875 94.707031 179.839844 96.332031 177.335938 97.023438 C 176.484375 97.261719 175.609375 97.378906 174.730469 97.378906"/><path fill="#E60A0A" d="M 165.753906 132.070312 C 161.402344 132.070312 157.550781 129.144531 156.382812 124.960938 C 155.691406 122.460938 156.011719 119.84375 157.289062 117.585938 C 158.570312 115.328125 160.652344 113.703125 163.15625 113.011719 C 164.007812 112.773438 164.882812 112.65625 165.761719 112.65625 C 170.109375 112.65625 173.960938 115.578125 175.128906 119.765625 C 175.820312 122.265625 175.5 124.882812 174.222656 127.140625 C 172.945312 129.394531 170.859375 131.019531 168.359375 131.714844 C 167.507812 131.949219 166.628906 132.070312 165.753906 132.070312"/><path fill="#E60A0A" d="M 200.347656 122.484375 C 195.996094 122.484375 192.144531 119.558594 190.980469 115.375 C 190.285156 112.875 190.605469 110.257812 191.882812 108 C 193.164062 105.742188 195.246094 104.117188 197.75 103.425781 C 198.601562 103.1875 199.476562 103.070312 200.355469 103.070312 C 204.707031 103.070312 208.554688 105.996094 209.722656 110.179688 C 211.15625 115.335938 208.121094 120.699219 202.953125 122.128906 C 202.101562 122.363281 201.226562 122.484375 200.347656 122.484375"/><g fill="#FFF"><use x="82.242" y="287.226" xmlns:xlink="http://www.w3.org/1999/xlink" xlink:href="#b" xlink:type="simple" xlink:actuate="onLoad" xlink:show="embed"/></g><g fill="#FFF"><use x="103.032" y="287.226" xmlns:xlink="http://www.w3.org/1999/xlink" xlink:href="#c" xlink:type="simple" xlink:actuate="onLoad" xlink:show="embed"/></g><g fill="#FFF"><use x="122.607" y="287.226" xmlns:xlink="http://www.w3.org/1999/xlink" xlink:href="#d" xlink:type="simple" xlink:actuate="onLoad" xlink:show="embed"/></g><g fill="#FFF"><use x="143.352" y="287.226" xmlns:xlink="http://www.w3.org/1999/xlink" xlink:href="#e" xlink:type="simple" xlink:actuate="onLoad" xlink:show="embed"/></g><g fill="#FFF"><use x="163.692" y="287.226" xmlns:xlink="http://www.w3.org/1999/xlink" xlink:href="#f" xlink:type="simple" xlink:actuate="onLoad" xlink:show="embed"/></g><g fill="#FFF"><use x="173.772" y="287.226" xmlns:xlink="http://www.w3.org/1999/xlink" xlink:href="#c" xlink:type="simple" xlink:actuate="onLoad" xlink:show="embed"/></g><g fill="#FFF"><use x="193.347" y="287.226" xmlns:xlink="http://www.w3.org/1999/xlink" xlink:href="#g" xlink:type="simple" xlink:actuate="onLoad" xlink:show="embed"/></g><g fill="#FFF"><use x="202.347" y="287.226" xmlns:xlink="http://www.w3.org/1999/xlink" xlink:href="#b" xlink:type="simple" xlink:actuate="onLoad" xlink:show="embed"/></g><g fill="#FFF"><use x="223.137" y="287.226" xmlns:xlink="http://www.w3.org/1999/xlink" xlink:href="#h" xlink:type="simple" xlink:actuate="onLoad" xlink:show="embed"/></g><g fill="#FFF"><use x="244.152" y="287.226" xmlns:xlink="http://www.w3.org/1999/xlink" xlink:href="#i" xlink:type="simple" xlink:actuate="onLoad" xlink:show="embed"/></g><g fill="#FFF"><use x="274.077" y="287.226" xmlns:xlink="http://www.w3.org/1999/xlink" xlink:href="#j" xlink:type="simple" xlink:actuate="onLoad" xlink:show="embed"/></g><g fill="#E60A0A"><use x="102.705" y="322.321" xmlns:xlink="http://www.w3.org/1999/xlink" xlink:href="#k" xlink:type="simple" xlink:actuate="onLoad" xlink:show="embed"/></g><g fill="#E60A0A"><use x="120.46" y="322.321" xmlns:xlink="http://www.w3.org/1999/xlink" xlink:href="#l" xlink:type="simple" xlink:actuate="onLoad" xlink:show="embed"/></g><g fill="#E60A0A"><use x="138.215" y="322.321" xmlns:xlink="http://www.w3.org/1999/xlink" xlink:href="#m" xlink:type="simple" xlink:actuate="onLoad" xlink:show="embed"/></g><g fill="#E60A0A"><use x="153.796" y="322.321" xmlns:xlink="http://www.w3.org/1999/xlink" xlink:href="#k" xlink:type="simple" xlink:actuate="onLoad" xlink:show="embed"/></g><g fill="#E60A0A"><use x="171.551" y="322.321" xmlns:xlink="http://www.w3.org/1999/xlink" xlink:href="#n" xlink:type="simple" xlink:actuate="onLoad" xlink:show="embed"/></g><g fill="#E60A0A"><use x="190.388" y="322.321" xmlns:xlink="http://www.w3.org/1999/xlink" xlink:href="#o" xlink:type="simple" xlink:actuate="onLoad" xlink:show="embed"/></g><g fill="#E60A0A"><use x="200.509" y="322.321" xmlns:xlink="http://www.w3.org/1999/xlink" xlink:href="#p" xlink:type="simple" xlink:actuate="onLoad" xlink:show="embed"/></g><g fill="#E60A0A"><use x="220.439" y="322.321" xmlns:xlink="http://www.w3.org/1999/xlink" xlink:href="#p" xlink:type="simple" xlink:actuate="onLoad" xlink:show="embed"/></g><g fill="#E60A0A"><use x="240.368" y="322.321" xmlns:xlink="http://www.w3.org/1999/xlink" xlink:href="#l" xlink:type="simple" xlink:actuate="onLoad" xlink:show="embed"/></g><g fill="#E60A0A"><use x="258.123" y="322.321" xmlns:xlink="http://www.w3.org/1999/xlink" xlink:href="#q" xlink:type="simple" xlink:actuate="onLoad" xlink:show="embed"/></g></svg>